<svg version="1.0" xmlns="http://www.w3.org/2000/svg" width="528.000000px" height="528.000000px" viewBox="0 0 528.000000 528.000000" preserveAspectRatio="xMidYMid meet"><g transform="translate(0.000000,528.000000) scale(0.100000,-0.100000)" fill="#000000" stroke="none"><path d="M3126 4154 c-22 -13 -26 -18 -15 -25 8 -5 26 -9 42 -9 22 0 27 4 27 25 0 29 -13 31 -54 9z"/><path d="M2350 4122 c-33 -16 -35 -20 -38 -76 -3 -53 0 -62 25 -88 27 -28 31 -29 88 -23 33 3 74 8 90 11 l30 5 -25 -15 c-14 -9 -49 -15 -77 -16 -29 0 -53 -3 -53 -6 0 -4 18 -33 40 -65 22 -33 36 -59 30 -59 -5 0 -10 5 -10 10 0 6 -6 10 -13 10 -8 0 -22 17 -31 39 -10 21 -39 60 -65 85 l-48 47 -20 -49 c-18 -42 -27 -51 -53 -57 l-33 -7 7 -56 c6 -51 34 -117 72 -166 13 -19 18 -19 92 -7 42 7 85 15 96 18 15 4 14 -1 -10 -33 -16 -21 -41 -49 -56 -62 -16 -13 -28 -28 -28 -32 0 -5 43 -41 96 -82 188 -143 190 -143 378 0 53 41 96 79 96 85 0 7 -7 21 -15 31 -8 11 -15 27 -15 36 0 37 -25 53 -80 51 -30 -1 -52 1 -49 4 3 2 27 6 53 6 26 1 49 6 51 10 3 4 21 3 40 -1 25 -6 38 -4 46 6 6 8 16 14 22 14 6 0 -4 -16 -23 -35 -36 -37 -48 -86 -25 -105 11 -9 16 -6 25 12 7 13 21 32 31 43 11 11 31 37 44 58 56 85 59 98 60 202 0 101 -5 119 -60 203 -1 1 -22 -9 -46 -23 -24 -13 -47 -25 -51 -25 -4 0 -1 19 7 41 20 55 20 55 -16 68 -73 25 -183 5 -244 -45 l-40 -32 -35 29 c-67 55 -192 76 -260 41z"/><path d="M2274 4082 c-23 -15 -73 -109 -80 -150 -6 -41 -6 -42 22 -42 26 0 32 6 57 68 26 65 36 132 20 132 -5 0 -13 -4 -19 -8z"/><path d="M2897 3643 c11 -32 15 -34 28 -16 16 21 11 33 -15 33 -14 0 -18 -5 -13 -17z"/><path d="M2180 3550 c1 -8 6 -25 13 -37 l12 -22 40 33 40 34 -53 3 c-41 3 -52 1 -52 -11z"/><path d="M2588 2525 l-3 -770 -40 -64 c-79 -127 -167 -191 -371 -271 -147 -57 -217 -95 -281 -153 -66 -60 -108 -147 -116 -233 l-5 -61 24 11 c13 6 24 17 24 25 0 8 14 42 30 77 53 108 175 203 331 258 169 60 201 75 252 117 l49 42 -35 -69 c-125 -245 -138 -276 -146 -353 -9 -83 -2 -185 16 -215 9 -17 13 -11 23 40 7 32 19 71 26 86 8 15 14 45 14 68 0 48 49 182 85 230 14 19 25 37 25 41 0 4 15 34 34 66 19 32 52 91 73 132 21 41 43 74 48 74 6 0 27 -33 48 -74 21 -41 54 -100 73 -132 19 -32 34 -62 34 -66 0 -4 11 -22 25 -41 36 -48 85 -182 85 -230 0 -23 6 -53 14 -68 7 -15 19 -54 26 -86 10 -51 14 -57 23 -40 18 30 25 132 16 215 -8 77 -20 108 -145 352 l-35 68 55 -45 c31 -25 75 -50 97 -56 23 -7 52 -18 63 -25 12 -7 54 -23 93 -35 134 -40 271 -148 323 -254 16 -35 30 -67 30 -73 0 -6 11 -18 24 -26 l24 -16 -5 62 c-8 87 -50 173 -116 234 -64 58 -134 96 -281 153 -204 80 -292 144 -371 271 l-40 64 -5 770 -5 770 -52 0 -53 0 -2 -770z"/><path d="M860 2186 c0 -2 7 -6 15 -10 8 -3 15 -1 15 4 0 6 -7 10 -15 10 -8 0 -15 -2 -15 -4z"/><path d="M900 2181 c0 -6 4 -12 8 -15 5 -3 9 1 9 9 0 8 -4 15 -9 15 -4 0 -8 -4 -8 -9z"/><path d="M1133 2180 c27 -17 133 -25 141 -11 5 7 -4 11 -27 11 -19 0 -56 3 -83 6 -40 4 -46 3 -31 -6z"/><path d="M4005 2180 c8 -13 125 -13 145 0 10 7 -11 10 -68 10 -53 0 -81 -4 -77 -10z"/><path d="M830 2169 c0 -5 5 -7 10 -4 6 3 10 8 10 11 0 2 -4 4 -10 4 -5 0 -10 -5 -10 -11z"/><path d="M4200 2168 c0 -11 22 -10 40 2 11 8 9 9 -12 8 -16 -1 -28 -6 -28 -10z"/><path d="M4400 2176 c0 -2 7 -7 16 -10 8 -3 12 -2 9 4 -6 10 -25 14 -25 6z"/><path d="M1058 2163 c7 -3 16 -2 19 1 4 3 -2 6 -13 5 -11 0 -14 -3 -6 -6z"/><path d="M663 1835 c0 -7 8 -10 19 -7 10 2 18 6 18 7 0 1 -8 5 -18 7 -11 3 -19 0 -19 -7z"/><path d="M800 1836 c0 -7 31 -11 84 -11 85 0 133 13 60 17 -111 5 -144 4 -144 -6z"/><path d="M724 1828 c-3 -4 11 -8 30 -8 20 0 36 2 36 4 0 8 -61 12 -66 4z"/><path d="M4295 1830 c3 -5 38 -10 76 -10 44 0 68 4 64 10 -3 6 -38 10 -76 10 -44 0 -68 -4 -64 -10z"/><path d="M4450 1830 c0 -5 5 -10 11 -10 5 0 7 5 4 10 -3 6 -8 10 -11 10 -2 0 -4 -4 -4 -10z"/><path d="M4575 1831 c-3 -6 -26 -9 -50 -7 -25 1 -45 -1 -45 -6 0 -15 87 -9 100 7 7 8 10 15 7 15 -3 0 -8 -4 -12 -9z"/><path d="M550 1820 c0 -5 7 -7 15 -4 8 4 15 8 15 10 0 2 -7 4 -15 4 -8 0 -15 -4 -15 -10z"/><path d="M4700 1800 c8 -5 20 -10 25 -10 6 0 3 5 -5 10 -8 5 -19 10 -25 10 -5 0 -3 -5 5 -10z"/></g></svg>