<?xml version="1.0" standalone="no"?>
<!DOCTYPE svg PUBLIC "-//W3C//DTD SVG 20010904//EN"
 "http://www.w3.org/TR/2001/REC-SVG-20010904/DTD/svg10.dtd">
<svg version="1.0" xmlns="http://www.w3.org/2000/svg"
 width="1920.000000pt" height="1080.000000pt" viewBox="0 0 1920.000000 1080.000000"
 preserveAspectRatio="xMidYMid meet">

<g transform="translate(0.000000,1080.000000) scale(0.100000,-0.100000)"
fill="#000000" stroke="none">
<path d="M0 8926 l0 -1874 45 17 c53 20 95 54 95 78 0 10 1 730 3 1599 2 1566
2 1582 22 1604 11 13 38 30 60 40 45 19 59 34 70 70 4 14 19 37 33 53 24 25
32 27 102 27 110 0 135 11 165 74 13 28 35 58 47 65 20 13 353 15 2503 12
l2480 -3 34 24 c19 13 43 38 54 56 l19 32 -2866 0 -2866 0 0 -1874z"/>
<path d="M6085 10781 c-3 -10 -14 -26 -25 -36 -11 -10 -20 -26 -20 -36 0 -17
26 -18 508 -21 279 -2 1394 -3 2477 -3 l1970 0 3 28 c3 23 8 27 37 27 29 0 34
-4 37 -27 l3 -28 415 0 c228 0 1900 4 3715 9 3138 9 3302 8 3338 -8 27 -14 43
-31 61 -71 14 -29 33 -55 42 -59 8 -3 50 -6 92 -6 102 0 139 -18 172 -85 20
-40 35 -54 72 -72 26 -12 53 -33 60 -45 10 -19 14 -322 18 -1558 l5 -1535 23
-3 c12 -2 43 4 67 14 l45 17 0 1758 0 1759 -6554 0 c-6392 0 -6555 0 -6561
-19z"/>
<path d="M5874 10521 c-23 -4 -56 -19 -73 -34 -18 -15 -37 -27 -43 -27 -6 0
-26 14 -45 30 l-34 30 -2494 0 c-1857 0 -2501 -3 -2519 -11 -16 -8 -32 -29
-42 -56 -26 -68 -52 -83 -144 -83 -86 0 -136 -13 -150 -40 -6 -12 -10 -619
-10 -1690 l0 -1671 31 -45 c50 -74 59 -105 59 -214 0 -87 3 -103 20 -120 11
-11 29 -20 40 -20 37 0 81 -30 96 -65 9 -22 14 -71 14 -139 0 -158 -37 -145
421 -148 l379 -3 27 -28 c23 -22 28 -36 28 -76 0 -59 -29 -97 -82 -107 -42 -8
-83 -40 -83 -65 0 -49 -53 -109 -96 -109 -34 0 -73 -37 -80 -76 -10 -52 -48
-93 -95 -100 -73 -12 -79 -30 -79 -230 0 -107 4 -182 11 -198 11 -23 26 -32
93 -52 16 -5 38 -22 50 -37 20 -27 21 -41 21 -237 0 -196 -1 -210 -21 -237
-11 -15 -36 -33 -55 -40 -43 -15 -359 -17 -411 -3 -46 13 -73 47 -82 99 -6 42
-35 71 -69 71 -10 0 -36 9 -58 21 -39 19 -42 19 -60 3 -19 -17 -19 -66 -19
-2170 l0 -2153 24 -28 c22 -26 30 -28 123 -33 112 -6 126 -13 153 -75 33 -76
-65 -70 1114 -70 878 0 1068 2 1101 14 30 10 96 69 271 243 149 148 241 231
260 237 47 13 87 -5 142 -63 47 -50 52 -59 52 -102 0 -46 -2 -48 -110 -159
-81 -83 -110 -119 -110 -138 0 -17 7 -26 23 -30 12 -3 446 -6 965 -7 922 -1
942 0 942 19 0 10 -7 21 -15 25 -8 3 -20 17 -27 30 -9 20 -8 30 6 51 l16 25
180 0 c203 0 200 -1 200 82 0 53 9 67 46 77 27 7 29 11 32 66 4 67 12 83 50
87 20 2 28 9 30 28 5 36 20 50 52 50 32 0 47 -14 52 -50 2 -20 10 -26 38 -30
l35 -5 5 -70 c5 -70 5 -70 40 -81 35 -11 35 -12 40 -80 l5 -69 187 -5 c119 -3
191 -9 198 -16 6 -6 10 -26 8 -45 -2 -28 -8 -34 -35 -41 -42 -11 -46 -44 -6
-54 15 -4 2575 -4 5688 1 3113 4 5829 7 6035 5 240 -1 385 2 402 9 19 7 34 26
49 61 12 28 31 56 43 63 12 6 65 14 120 17 153 9 138 -77 134 764 -3 749 -3
739 -47 773 -20 15 -244 18 -271 3 -10 -6 -29 -28 -41 -50 -14 -24 -43 -53
-71 -70 -26 -16 -54 -42 -62 -57 -8 -15 -26 -39 -41 -53 -25 -24 -33 -25 -173
-28 -229 -5 -252 16 -252 226 0 137 11 178 55 208 15 11 41 31 56 46 29 26 29
27 29 148 0 133 -4 142 -78 182 -17 9 -40 34 -51 56 -13 25 -37 49 -65 66 -27
16 -54 42 -67 66 -14 24 -43 53 -71 70 -63 39 -77 69 -55 116 29 60 52 64 350
64 263 0 264 0 285 23 18 20 22 35 22 96 0 70 1 74 34 105 19 17 47 41 64 53
28 22 30 27 34 104 3 80 3 81 43 114 55 47 96 88 122 123 45 59 106 49 156
-26 35 -52 52 -60 77 -37 20 18 20 41 20 1582 0 1735 6 1585 -66 1665 -58 65
-56 110 10 192 57 72 55 36 56 999 0 557 -4 895 -10 906 -22 43 -40 34 -149
-74 -110 -108 -149 -130 -183 -103 -17 13 -21 28 -19 62 1 22 184 211 224 233
16 8 40 12 55 9 31 -7 41 -1 65 34 16 22 17 79 17 656 0 750 12 684 -127 684
-101 0 -144 17 -167 65 -9 18 -16 37 -16 42 0 6 -9 18 -21 29 -21 18 -61 19
-1478 21 -801 0 -2449 4 -3663 8 l-2208 6 0 -57 0 -57 148 5 c81 3 153 3 160
1 6 -3 12 -18 12 -34 0 -25 -4 -29 -29 -29 -26 0 -30 -4 -33 -32 -3 -29 -7
-33 -35 -36 -29 -3 -33 -7 -33 -33 0 -26 -3 -29 -30 -29 l-30 0 0 -90 0 -90
30 0 30 0 0 -95 0 -95 -100 0 -100 0 0 30 c0 27 -3 30 -30 30 -27 0 -30 3 -30
30 l0 30 -95 0 -95 0 0 -30 c0 -27 -3 -30 -30 -30 -27 0 -30 -3 -30 -30 l0
-30 -100 0 -100 0 0 95 0 95 35 0 35 0 0 90 0 90 -35 0 c-32 0 -35 2 -35 30 0
27 -3 30 -30 30 -28 0 -30 3 -30 35 0 33 -2 35 -35 35 -32 0 -35 2 -35 30 l0
30 160 0 160 0 0 55 0 55 -2477 -1 c-1363 -1 -2497 -5 -2519 -8z m-428 -203
c36 -34 67 -73 71 -86 5 -21 -22 -52 -213 -243 -125 -125 -227 -219 -237 -219
-36 0 -167 130 -167 166 0 5 98 106 217 226 161 161 224 218 241 218 15 0 46
-22 88 -62z m8052 20 c7 -7 12 -31 12 -55 0 -46 -17 -63 -65 -63 -48 0 -65 17
-65 63 0 54 13 67 65 67 23 0 46 -5 53 -12z m1200 -200 c30 -30 14 -63 -82
-156 -94 -93 -125 -109 -154 -80 -29 29 -13 60 80 154 93 96 126 112 156 82z
m2000 -102 c4 -36 -15 -58 -47 -54 -35 4 -48 62 -19 83 29 19 62 5 66 -29z
m-14785 -16 c44 -35 44 -71 1 -114 -23 -24 -71 -20 -99 9 -32 31 -31 56 1 94
30 36 61 39 97 11z m7159 -137 c15 -15 28 -31 28 -37 0 -14 -282 -296 -295
-296 -6 0 -24 14 -40 30 l-29 31 149 149 c82 83 152 150 154 150 3 0 18 -12
33 -27z m7476 2 c17 -14 34 -39 37 -56 l7 -30 66 3 c58 3 67 6 70 23 4 21 60
85 75 85 5 0 21 -9 35 -21 22 -17 35 -19 74 -14 33 5 53 3 63 -5 22 -18 19
-67 -6 -88 -68 -55 -79 -103 -49 -203 24 -78 24 -98 2 -125 -44 -55 -89 -52
-178 11 -60 43 -106 46 -155 10 -44 -32 -109 -64 -131 -65 -21 0 -75 45 -83
71 -4 11 3 49 15 85 31 93 22 164 -25 200 -43 33 -51 58 -30 91 16 23 21 25
66 20 38 -5 53 -2 71 13 30 25 41 25 76 -5z m-2140 -31 c30 -21 28 -47 -9 -88
-45 -52 -94 -80 -117 -67 -44 24 -34 58 36 124 28 26 55 47 59 47 5 0 19 -7
31 -16z m-11788 -34 c0 -4 11 -22 25 -39 14 -16 33 -51 41 -78 10 -32 27 -58
51 -78 34 -28 43 -30 130 -33 82 -4 95 -7 108 -25 30 -43 19 -76 -44 -136 -42
-40 -63 -68 -72 -99 -12 -40 -10 -48 20 -124 39 -95 38 -136 -8 -182 -25 -25
-38 -30 -78 -30 -55 1 -126 33 -143 65 -6 11 -32 29 -56 40 -42 17 -48 18 -82
3 -20 -8 -50 -28 -67 -43 -44 -42 -88 -61 -140 -61 -57 0 -80 12 -100 50 -22
43 -18 85 16 170 l32 77 -26 56 c-19 41 -38 65 -72 89 -47 33 -62 61 -50 97
13 43 32 51 116 51 44 0 90 5 102 11 42 22 77 63 88 103 6 22 21 53 34 68 13
15 26 37 30 47 5 16 17 21 58 23 53 3 87 -5 87 -22z m2192 -147 c41 -41 68
-76 68 -89 0 -22 -138 -164 -160 -164 -21 0 -160 142 -160 164 0 31 128 156
159 156 18 0 46 -20 93 -67z m9422 1 c30 -30 13 -74 -29 -74 -60 0 -59 88 2
90 6 0 19 -7 27 -16z m-10229 -39 c31 -30 32 -62 3 -92 -35 -37 -79 -29 -104
18 -17 33 -8 58 28 83 31 22 45 20 73 -9z m4635 -260 c-46 -47 -89 -85 -95
-85 -6 0 -24 14 -40 30 l-29 30 89 90 90 90 35 -35 35 -35 -85 -85z m-2282
-72 c3 -29 7 -33 33 -33 29 0 29 0 29 -60 l0 -60 30 0 30 0 0 -60 0 -60 150 0
150 0 0 -30 c0 -27 -3 -30 -30 -30 -28 0 -30 -3 -30 -35 0 -32 -2 -35 -29 -35
-25 0 -30 -4 -33 -27 -2 -22 -9 -29 -30 -31 l-28 -3 0 -84 0 -84 28 -3 27 -3
3 -92 3 -93 -96 0 -95 0 0 30 c0 27 -3 30 -30 30 -27 0 -30 3 -30 30 l0 30
-90 0 -90 0 0 -30 c0 -27 -3 -30 -30 -30 -27 0 -30 -3 -30 -30 l0 -30 -90 0
-90 0 0 95 0 95 30 0 30 0 0 85 0 85 -30 0 c-27 0 -30 3 -30 30 0 27 -3 30
-29 30 -26 0 -30 4 -33 33 -3 28 -7 32 -35 35 -29 3 -33 7 -33 33 l0 29 155 0
155 0 0 60 0 60 30 0 30 0 0 60 0 60 30 0 c26 0 30 4 30 28 0 36 8 44 40 40
20 -2 26 -9 28 -35z m8627 -28 c19 -20 35 -43 35 -53 0 -9 10 -33 22 -52 12
-19 27 -48 33 -65 l10 -30 103 -5 c107 -5 122 -12 122 -54 0 -10 -26 -44 -58
-75 -91 -88 -103 -125 -54 -182 23 -28 27 -42 27 -92 0 -72 -16 -87 -92 -87
-51 0 -56 2 -103 50 -46 47 -52 50 -100 50 -48 0 -54 -3 -101 -51 l-50 -51
-61 4 c-37 3 -63 10 -69 19 -15 24 -11 126 7 143 8 9 20 16 25 16 5 0 9 25 9
56 l0 55 -77 75 c-101 98 -97 107 48 114 57 3 110 9 117 13 6 5 12 20 12 34 0
14 11 38 25 55 14 16 25 39 25 51 0 26 67 97 92 97 9 0 33 -16 53 -35z m-6530
-85 c-36 -37 -44 -37 -80 0 l-29 30 34 35 34 35 35 -35 35 -35 -29 -30z m9510
65 c34 -33 33 -74 -3 -108 -36 -35 -66 -34 -103 2 -36 37 -37 67 -2 103 34 36
75 37 108 3z m-5025 -260 l24 -26 -112 -112 -112 -112 -27 28 -28 27 110 110
c60 61 112 110 116 110 3 0 16 -11 29 -25z m-288 -282 c10 -9 18 -21 18 -27 0
-6 -28 -39 -62 -73 l-62 -63 -28 27 -28 27 62 63 c34 35 67 63 72 63 5 0 18
-7 28 -17z m-10882 -73 c11 -11 20 -30 20 -41 0 -25 -153 -184 -186 -193 -29
-9 -74 28 -74 61 0 18 23 49 82 109 89 91 119 103 158 64z m16666 -65 c21 -32
8 -67 -44 -118 -66 -64 -132 -56 -132 15 0 24 12 42 49 79 57 58 99 66 127 24z
m-5961 -94 l-25 -26 -27 27 -27 27 24 26 24 25 28 -27 28 -27 -25 -25z m-3105
-26 l0 -65 -60 0 -60 0 0 65 0 65 60 0 60 0 0 -65z m-7891 -112 c14 -16 19
-34 15 -47 -9 -34 -70 -86 -101 -86 -15 0 -37 -10 -50 -21 -19 -18 -25 -20
-38 -9 -14 12 -14 15 5 35 11 12 20 34 20 49 0 20 12 41 39 67 47 47 80 51
110 12z m16709 5 c17 -17 15 -45 -4 -52 -25 -10 -33 -7 -44 13 -7 15 -6 23 6
35 19 19 26 20 42 4z m-786 -255 c11 -10 18 -30 18 -51 0 -31 -12 -47 -107
-144 -60 -61 -121 -116 -137 -125 -59 -31 -118 17 -97 79 11 33 210 240 241
251 30 11 64 7 82 -10z m-4552 -318 l-24 -26 -25 25 -25 25 24 26 24 26 25
-25 25 -25 -24 -26z m-100 -100 l-24 -26 -25 25 -25 25 24 26 24 26 25 -25 25
-25 -24 -26z m4277 19 c21 -33 4 -79 -50 -131 -49 -48 -89 -66 -128 -58 -59
13 -44 98 28 168 62 59 119 67 150 21z m-9212 -94 c-36 -37 -44 -37 -80 0
l-29 30 34 35 34 35 35 -35 35 -35 -29 -30z m4833 -27 c-27 -26 -28 -26 -48
-8 -25 23 -25 33 2 62 l22 24 25 -26 26 -25 -27 -27z m-4970 -46 l32 -33 -35
-34 -35 -34 -35 34 -35 34 32 33 c18 18 35 33 38 33 3 0 20 -15 38 -33z m9106
-53 c33 -32 4 -104 -41 -104 -46 0 -75 86 -35 109 25 15 58 13 76 -5z m-9244
-149 l-34 -35 -35 35 -35 35 34 35 34 35 35 -35 35 -35 -34 -35z m-3335 25 l0
-55 -57 -3 -58 -3 0 61 0 61 58 -3 57 -3 0 -55z m10600 -445 l0 -60 -60 0 -60
0 -3 49 c-5 73 -1 77 65 74 l58 -3 0 -60z m-6047 -117 c-3 -43 -3 -43 -45 -46
l-43 -3 0 45 0 46 46 0 45 0 -3 -42z m2800 -150 l3 -58 -66 0 -65 0 0 53 c0
30 3 57 7 61 4 4 32 6 63 4 l55 -3 3 -57z m7093 -47 c42 -41 49 -54 49 -87 0
-21 -8 -53 -18 -69 -11 -17 -91 -99 -180 -183 -153 -145 -163 -152 -202 -152
-34 0 -48 7 -85 41 -50 46 -65 91 -46 138 7 15 88 103 180 194 165 164 168
167 211 167 38 0 48 -5 91 -49z m-15916 -96 c14 -13 25 -31 25 -40 0 -22 -45
-65 -69 -65 -22 0 -61 44 -61 68 0 22 40 62 62 62 10 0 30 -11 43 -25z m14263
-281 c4 -28 -28 -41 -45 -19 -16 23 -5 47 21 43 13 -2 22 -11 24 -24z m1071
-163 c45 -31 66 -70 66 -117 0 -41 -5 -50 -47 -90 -40 -38 -53 -44 -89 -44
-115 0 -179 140 -102 222 54 58 117 69 172 29z m-12029 -16 c0 -18 5 -25 20
-25 17 0 20 -7 20 -39 0 -33 4 -40 23 -43 18 -2 23 -10 25 -45 l3 -43 105 0
104 0 0 -25 c0 -18 -5 -25 -20 -25 -13 0 -20 -7 -20 -20 0 -13 -7 -20 -20 -20
-13 0 -20 -7 -20 -20 0 -15 -7 -20 -25 -20 -24 0 -25 -2 -25 -65 0 -63 1 -65
25 -65 25 0 26 -1 23 -62 l-3 -63 -67 -3 c-63 -3 -68 -1 -68 18 0 13 -7 20
-20 20 -15 0 -20 7 -20 25 0 24 -3 25 -59 25 -54 0 -60 -2 -63 -22 -2 -15 -11
-24 -25 -26 -15 -2 -23 -10 -23 -23 0 -17 -7 -19 -65 -19 l-65 0 0 65 c0 58 2
65 20 65 18 0 20 7 20 65 0 58 -2 65 -20 65 -13 0 -20 7 -20 20 0 13 -7 20
-20 20 -13 0 -20 7 -20 19 0 13 -8 21 -22 23 -15 2 -24 11 -26 26 -3 22 -2 22
107 22 l111 0 0 45 c0 38 3 45 20 45 17 0 20 7 20 40 0 33 3 40 20 40 13 0 20
7 20 18 0 10 3 22 7 25 3 4 15 7 25 7 13 0 18 -7 18 -25z m7458 -772 l-3 -58
-57 -3 -58 -3 0 61 0 60 60 0 61 0 -3 -57z m-9238 -518 l0 -66 -57 3 -58 3 -3
63 -3 62 61 0 60 0 0 -65z m11022 -302 c26 -26 48 -53 48 -59 0 -15 -91 -104
-107 -104 -6 0 -32 23 -57 51 l-46 51 42 47 c41 45 58 61 68 61 2 0 26 -21 52
-47z m2455 -129 c3 -8 1 -20 -5 -26 -15 -15 -43 8 -35 28 7 19 32 18 40 -2z
m-2672 -204 c-27 -27 -54 -50 -60 -50 -6 0 -33 23 -60 50 l-49 50 54 55 55 55
55 -55 55 -55 -50 -50z m2468 27 c27 -35 13 -52 -36 -43 -41 8 -51 26 -30 55
19 28 40 24 66 -12z m446 3 c10 -29 8 -31 -25 -45 -42 -17 -77 -6 -67 23 20
57 75 71 92 22z m-16309 -48 c26 -32 25 -55 -3 -88 -29 -33 -69 -35 -103 -4
-30 29 -31 70 -1 97 41 38 75 37 107 -5z m10188 -64 c3 -21 9 -27 30 -30 25
-3 27 -6 30 -60 3 -57 4 -58 32 -58 30 0 30 0 30 -60 l0 -60 151 0 150 0 -3
-32 c-2 -27 -8 -34 -30 -36 -21 -3 -27 -9 -30 -30 -2 -21 -9 -28 -30 -30 -21
-3 -27 -9 -30 -30 -2 -21 -9 -28 -30 -30 l-28 -3 0 -85 0 -84 30 0 30 0 0 -95
0 -96 -92 3 -93 3 -3 28 c-3 23 -8 27 -33 27 -26 0 -29 3 -29 30 l0 30 -84 0
-85 0 -3 -27 c-2 -22 -9 -29 -30 -31 -21 -3 -27 -9 -30 -30 -3 -27 -3 -27 -95
-30 l-93 -3 0 96 0 95 30 0 30 0 0 84 0 85 -27 3 c-22 2 -29 9 -31 30 -3 21
-9 27 -30 30 -21 2 -28 9 -30 30 -3 21 -9 27 -30 30 -22 2 -28 9 -30 36 l-3
32 150 0 151 0 0 60 0 60 30 0 30 0 0 60 0 60 30 0 c27 0 30 3 30 31 0 28 2
30 33 27 26 -2 33 -8 35 -30z m2982 -143 l-55 -55 -55 55 -55 55 55 55 55 55
55 -55 55 -55 -55 -55z m-5370 0 l0 -55 -55 0 -55 0 0 55 0 55 55 0 55 0 0
-55z m8120 -10 c0 -2 -4 -15 -10 -29 -10 -27 -52 -37 -65 -15 -11 17 4 57 23
62 16 3 52 -9 52 -18z m328 -16 c5 -43 -50 -50 -63 -8 -9 27 3 41 33 37 21 -2
28 -9 30 -29z m-13413 -519 c17 -19 14 -22 -81 -125 -54 -58 -105 -105 -114
-105 -9 0 -25 9 -35 20 -19 21 -17 22 85 125 58 58 110 105 116 105 6 0 19 -9
29 -20z m-275 -270 c11 -11 20 -24 20 -28 0 -4 -27 -34 -60 -67 -49 -49 -63
-58 -77 -49 -43 27 -40 41 22 104 33 33 63 60 67 60 4 0 17 -9 28 -20z m3778
-182 l3 -58 -66 0 -65 0 0 53 c0 30 3 57 7 61 4 4 32 6 63 4 l55 -3 3 -57z
m7046 41 c14 -11 26 -28 26 -37 0 -10 -58 -76 -130 -147 l-130 -129 -27 20
c-16 12 -30 29 -31 39 -3 12 38 60 124 146 71 71 132 129 135 129 3 0 18 -9
33 -21z m-13671 -9 c35 -28 45 -81 23 -126 -24 -52 -88 -69 -146 -39 -57 29
-59 141 -3 174 31 18 98 13 126 -9z m2677 -20 c17 -17 18 -24 10 -41 -15 -27
-34 -33 -59 -19 -25 13 -27 37 -4 62 21 23 28 23 53 -2z m-2897 -200 c48 -38
44 -130 -7 -165 -11 -8 -39 -15 -61 -15 -48 0 -78 18 -95 59 -30 72 17 141 95
141 27 0 51 -7 68 -20z m13554 -122 c13 -12 23 -27 23 -33 0 -13 -143 -155
-156 -155 -14 0 -54 43 -54 59 0 20 130 151 149 151 8 0 25 -10 38 -22z
m-13780 -93 c50 -35 50 -135 0 -170 -27 -19 -96 -19 -123 0 -51 35 -55 127 -7
165 31 24 99 27 130 5z m1890 -32 c9 -16 25 -35 36 -44 10 -8 21 -34 24 -56 4
-32 15 -50 49 -82 l45 -41 94 0 c70 0 97 -4 109 -15 35 -36 27 -87 -16 -101
-37 -11 -74 -55 -92 -108 -21 -66 -21 -73 14 -154 35 -83 38 -120 10 -155 -47
-60 -139 -52 -210 18 -19 19 -54 41 -78 49 -39 14 -47 14 -80 0 -20 -8 -53
-30 -72 -49 -37 -35 -98 -65 -134 -65 -39 0 -84 37 -96 77 -11 34 -9 46 19
116 35 88 37 105 15 167 -18 53 -44 84 -85 100 -39 17 -48 53 -22 88 19 26 25
27 106 27 74 0 90 3 117 23 17 13 37 22 43 19 7 -2 23 -37 37 -76 27 -78 44
-92 85 -65 24 16 28 16 60 -2 45 -24 57 -12 92 97 3 10 -8 29 -26 48 -17 17
-31 41 -31 52 0 11 -5 29 -10 39 -9 16 -15 18 -36 10 -31 -12 -62 2 -73 33
-13 35 2 61 40 68 19 4 37 7 41 8 4 0 15 -11 25 -26z m-126 -113 c-4 -54 -7
-61 -26 -53 -10 3 -15 19 -15 47 0 47 6 58 29 54 12 -2 15 -14 12 -48z m11801
33 c27 -32 28 -40 7 -67 -25 -32 -45 -33 -76 -4 -29 27 -29 36 -1 65 26 27 49
29 70 6z m1832 -74 c30 -36 32 -56 8 -85 -28 -35 -58 -47 -84 -33 -29 15 -57
49 -58 71 0 30 49 78 80 78 19 0 36 -10 54 -31z m-10356 -142 l22 -23 -23 -22
-23 -22 -24 25 c-23 24 -23 25 -5 45 23 25 27 25 53 -3z m-93 -137 c-23 -25
-37 -25 -60 0 -18 20 -18 21 5 45 l24 26 25 -25 c24 -25 24 -26 6 -46z m4715
30 c0 -13 7 -20 20 -20 17 0 20 -7 20 -45 0 -41 2 -45 25 -45 23 0 25 -4 25
-45 l0 -45 105 0 c98 0 105 -1 105 -20 0 -13 -7 -20 -19 -20 -13 0 -21 -8 -23
-22 -2 -15 -11 -24 -25 -26 -15 -2 -23 -10 -23 -23 0 -12 -7 -19 -20 -19 -18
0 -20 -7 -20 -60 0 -53 2 -60 20 -60 18 0 20 -7 20 -70 l0 -70 -65 0 c-63 0
-65 1 -65 25 0 18 -5 25 -20 25 -13 0 -20 7 -20 20 0 18 -7 20 -65 20 -58 0
-65 -2 -65 -20 0 -13 -7 -20 -20 -20 -15 0 -20 -7 -20 -25 0 -24 -2 -25 -65
-25 l-65 0 0 70 c0 63 2 70 20 70 18 0 20 7 20 60 0 53 -2 60 -20 60 -13 0
-20 7 -20 19 0 13 -8 21 -22 23 -15 2 -24 11 -26 26 -2 14 -10 22 -23 22 -12
0 -19 7 -19 20 0 18 8 20 108 22 l107 3 3 43 c3 34 7 42 23 42 16 0 19 7 19
45 0 38 3 45 20 45 13 0 20 7 20 20 0 15 7 20 25 20 18 0 25 -5 25 -20z
m-4818 -77 c23 -21 23 -36 -2 -58 -20 -18 -21 -18 -45 5 l-25 24 22 23 c26 27
26 28 50 6z m2698 -618 l-55 -55 -55 55 -55 55 55 55 55 55 55 -55 55 -55 -55
-55z m7734 62 c7 -18 20 -38 29 -46 9 -7 21 -30 27 -50 5 -20 28 -55 51 -78
l41 -43 88 0 c84 0 90 -1 109 -26 35 -45 27 -73 -34 -127 -56 -49 -85 -99 -85
-144 0 -14 14 -56 31 -95 24 -55 29 -78 24 -107 -8 -44 -37 -77 -82 -92 -44
-14 -123 13 -167 58 -17 18 -49 39 -71 46 -34 12 -46 12 -82 0 -24 -8 -52 -27
-63 -43 -11 -15 -43 -37 -71 -50 -64 -27 -110 -21 -151 20 -38 39 -38 95 2
188 29 68 29 71 15 113 -15 42 -52 89 -110 137 -24 20 -27 28 -21 60 8 53 26
62 128 62 87 0 89 1 127 35 26 24 42 49 50 78 5 24 19 54 31 67 11 13 20 27
20 32 0 4 8 16 18 26 13 13 30 16 75 14 54 -4 58 -6 71 -35z m-7954 -282 l-55
-55 -55 55 -55 55 55 55 55 55 55 -55 55 -55 -55 -55z m-6796 19 c21 -20 20
-53 -1 -76 -20 -22 -56 -23 -77 -2 -19 18 -21 65 -4 82 17 17 64 15 82 -4z
m11076 -69 l0 -55 -55 0 -55 0 0 55 0 55 55 0 55 0 0 -55z m1442 28 c25 -23
22 -48 -9 -72 -23 -19 -29 -20 -47 -8 -35 24 -41 42 -23 71 20 30 52 34 79 9z
m-7212 -93 l0 -60 -60 0 -60 0 0 60 0 60 60 0 60 0 0 -60z m1270 -105 l-55
-55 -55 55 -55 55 55 55 55 55 55 -55 55 -55 -55 -55z m5822 78 c25 -23 22
-48 -9 -72 -23 -19 -29 -20 -47 -8 -35 24 -41 42 -23 71 20 30 52 34 79 9z
m4439 -52 c19 -15 23 -28 23 -61 -2 -54 -21 -73 -75 -73 -51 0 -79 28 -79 79
0 66 77 99 131 55z m-4559 -68 c24 -21 23 -42 -4 -70 -27 -29 -36 -29 -65 -1
-27 25 -28 36 -7 66 18 26 50 28 76 5z m4339 -152 c18 -15 23 -28 23 -60 -1
-22 -7 -48 -14 -56 -27 -32 -108 -27 -132 9 -16 23 -8 86 12 106 26 26 80 26
111 1z m-8411 -51 l0 -60 -60 0 -60 0 0 60 0 60 60 0 60 0 0 -60z m8188 -166
c18 -12 22 -25 22 -63 0 -60 -17 -76 -77 -76 -33 0 -48 5 -59 19 -21 29 -18
92 6 116 24 24 77 26 108 4z"/>
<path d="M2500 9664 c-6 -14 -10 -28 -10 -32 0 -3 -9 -15 -19 -26 -16 -17 -18
-29 -12 -69 10 -60 15 -65 50 -44 36 21 50 21 72 1 29 -26 46 -11 53 46 6 44
4 56 -12 74 -10 11 -23 33 -30 49 -10 22 -18 27 -47 27 -29 0 -37 -5 -45 -26z"/>
<path d="M6300 9210 l0 -60 -35 0 -35 0 0 -59 c0 -58 -1 -60 -27 -63 -27 -3
-28 -6 -31 -60 l-3 -58 31 0 c27 0 30 3 30 30 0 28 3 30 35 30 32 0 35 -2 35
-30 0 -25 4 -30 25 -30 21 0 25 5 25 30 0 28 3 30 35 30 32 0 35 -2 35 -30 0
-25 4 -30 25 -30 24 0 25 3 25 60 l0 60 -30 0 -30 0 0 60 0 60 -30 0 -30 0 0
60 c0 57 -1 60 -25 60 -24 0 -25 -3 -25 -60z"/>
<path d="M5990 8940 l0 -30 60 0 60 0 0 30 0 30 -60 0 -60 0 0 -30z"/>
<path d="M6540 8940 c0 -30 1 -30 55 -30 54 0 55 0 55 30 0 30 -1 30 -55 30
-54 0 -55 0 -55 -30z"/>
<path d="M6110 8875 c0 -21 5 -25 30 -25 25 0 30 4 30 25 0 21 -5 25 -30 25
-25 0 -30 -4 -30 -25z"/>
<path d="M6230 8875 c0 -21 5 -25 30 -25 25 0 30 4 30 25 0 21 -5 25 -30 25
-25 0 -30 -4 -30 -25z"/>
<path d="M6360 8875 c0 -20 5 -25 25 -25 20 0 25 5 25 25 0 20 -5 25 -25 25
-20 0 -25 -5 -25 -25z"/>
<path d="M6480 8875 c0 -20 5 -25 25 -25 20 0 25 5 25 25 0 20 -5 25 -25 25
-20 0 -25 -5 -25 -25z"/>
<path d="M14891 9144 c-12 -15 -21 -35 -21 -46 0 -10 -19 -39 -41 -63 -39 -42
-45 -45 -95 -45 -29 0 -55 -4 -59 -9 -3 -5 15 -29 39 -53 49 -46 49 -47 47
-126 -1 -46 -4 -54 -26 -64 -19 -9 -25 -19 -25 -44 0 -32 13 -44 48 -44 9 0
39 25 66 55 48 54 49 55 105 55 55 0 58 -2 106 -50 38 -38 56 -50 75 -48 33 4
38 39 11 77 -14 19 -21 47 -23 85 -2 53 0 58 37 96 44 45 41 57 -21 67 -47 7
-110 62 -119 104 -9 38 -42 79 -65 79 -10 0 -28 -12 -39 -26z"/>
<path d="M6000 5965 c0 -38 -3 -45 -20 -45 -17 0 -20 -7 -20 -40 0 -36 -2 -40
-25 -40 -20 0 -25 -5 -25 -25 0 -24 -2 -25 -65 -25 -50 0 -65 -3 -65 -14 0 -8
10 -16 23 -18 14 -2 23 -11 25 -25 2 -15 10 -23 23 -23 17 0 19 -7 19 -65 0
-58 -2 -65 -20 -65 -17 0 -20 -7 -20 -40 l0 -40 40 0 c33 0 40 3 40 20 0 13 7
20 20 20 13 0 20 7 20 20 0 18 7 20 65 20 58 0 65 -2 65 -20 0 -15 7 -20 25
-20 18 0 25 -5 25 -20 0 -17 7 -20 40 -20 l40 0 0 40 c0 33 -3 40 -20 40 -18
0 -20 7 -20 65 0 58 2 65 20 65 15 0 20 7 20 25 0 18 5 25 20 25 11 0 20 7 20
15 0 10 -16 15 -62 17 -57 3 -63 5 -66 26 -2 14 -10 22 -23 22 -16 0 -19 7
-19 40 0 33 -3 40 -20 40 -17 0 -20 7 -20 45 0 38 -3 45 -20 45 -17 0 -20 -7
-20 -45z"/>
<path d="M11798 3933 c-3 -55 -5 -58 -30 -61 -25 -3 -27 -7 -30 -60 -3 -54 -5
-57 -30 -60 -21 -3 -27 -9 -30 -30 -3 -27 -4 -27 -90 -30 -85 -3 -88 -4 -88
-27 0 -18 6 -24 28 -27 21 -2 28 -9 30 -30 3 -21 9 -27 30 -30 l27 -3 0 -90 0
-90 -27 -3 c-27 -3 -28 -6 -28 -58 l0 -54 54 0 c52 0 55 1 58 28 2 21 9 28 31
30 23 3 27 8 27 33 l0 30 93 -3 c92 -3 92 -3 95 -30 3 -21 9 -27 30 -30 21 -2
28 -9 30 -30 3 -27 6 -28 58 -28 l54 0 0 54 c0 52 -1 55 -27 58 l-28 3 0 90 0
90 27 3 c21 3 27 9 30 30 2 21 9 28 31 30 21 3 27 9 27 27 0 23 -3 24 -87 27
-87 3 -88 3 -91 30 -3 21 -9 27 -30 30 -25 3 -27 6 -30 60 -3 53 -5 57 -30 60
-25 3 -27 6 -30 61 -3 53 -5 57 -27 57 -22 0 -24 -4 -27 -57z"/>
<path d="M10560 1981 c0 -33 -4 -40 -22 -43 -19 -2 -24 -10 -26 -45 -3 -35 -7
-43 -23 -43 -12 0 -19 -7 -19 -20 0 -16 -8 -19 -62 -22 -50 -2 -63 -6 -66 -20
-3 -13 3 -18 22 -18 19 0 26 -5 26 -20 0 -13 7 -20 20 -20 18 0 20 -7 20 -70
0 -63 -2 -70 -20 -70 -17 0 -20 -7 -20 -40 l0 -40 40 0 c33 0 40 3 40 20 0 13
7 20 20 20 15 0 20 7 20 25 0 24 2 25 64 25 59 0 65 -2 68 -22 2 -15 11 -24
26 -26 14 -2 22 -10 22 -23 0 -16 7 -19 40 -19 l40 0 0 40 c0 36 -2 40 -25 40
-26 0 -26 1 -23 68 3 61 5 67 26 70 14 2 22 10 22 23 0 12 7 19 20 19 13 0 20
7 20 20 0 18 -7 20 -65 20 -58 0 -65 2 -65 20 0 13 -7 20 -20 20 -17 0 -20 7
-20 45 0 41 -2 45 -25 45 -22 0 -25 4 -25 40 0 29 -4 40 -15 40 -11 0 -15 -11
-15 -39z"/>
<path d="M16085 1263 c-9 -21 -22 -44 -29 -53 -10 -11 -12 -28 -7 -63 5 -26
11 -50 15 -54 4 -4 21 1 38 11 30 18 32 18 65 1 20 -11 37 -15 42 -9 13 14 20
103 9 110 -5 4 -18 26 -28 50 -18 40 -22 44 -55 44 -31 0 -37 -4 -50 -37z"/>
<path d="M10940 10475 c0 -54 0 -55 -30 -55 -27 0 -30 -3 -30 -30 l0 -30 -95
0 -95 0 0 -30 c0 -27 3 -30 30 -30 27 0 30 -3 30 -30 0 -27 3 -30 30 -30 l30
0 0 -100 0 -100 -30 0 -30 0 0 -60 0 -60 59 0 60 0 3 33 c3 28 7 32 36 35 28
3 32 7 32 33 l0 29 100 0 100 0 0 -30 c0 -27 3 -30 30 -30 28 0 30 -3 30 -35
l0 -35 60 0 60 0 0 60 0 60 -30 0 -30 0 0 100 0 100 30 0 c27 0 30 3 30 30 0
28 3 30 36 30 33 0 35 2 32 28 l-3 27 -97 3 -98 3 0 29 c0 27 -3 30 -30 30
-30 0 -30 1 -30 55 l0 55 -95 0 -95 0 0 -55z"/>
<path d="M19143 6881 c-23 -16 -50 -49 -62 -74 l-22 -45 -1 -1699 c-1 -934 2
-1780 6 -1880 10 -212 14 -223 91 -223 l45 0 0 1975 c0 1086 -4 1975 -8 1975
-5 0 -27 -13 -49 -29z"/>
<path d="M62 6824 c-20 -14 -22 -23 -22 -112 0 -81 -4 -101 -20 -122 -19 -24
-20 -46 -20 -717 l0 -693 30 0 c45 0 97 25 107 52 11 31 3 1568 -9 1591 -11
21 -37 22 -66 1z"/>
<path d="M340 6190 c-19 -19 -20 -32 -20 -487 l0 -466 32 -50 c17 -27 39 -72
48 -101 17 -53 37 -69 93 -81 38 -8 73 -47 82 -91 12 -64 31 -74 150 -74 141
0 145 4 145 141 0 55 -4 109 -10 119 -6 11 -34 26 -65 35 -91 26 -95 39 -95
281 0 193 1 202 23 235 17 26 34 37 69 46 64 15 66 17 84 78 17 61 46 89 98
99 20 4 44 18 55 32 19 24 19 29 6 54 -8 15 -22 30 -30 34 -9 3 -104 6 -212 6
l-195 0 -34 34 c-22 22 -34 44 -34 60 0 32 -41 76 -70 76 -11 0 -39 9 -60 20
l-40 20 -20 -20z"/>
<path d="M0 2480 l0 -2480 1308 2 1307 3 3 27 c2 15 -2 36 -8 48 -11 20 -13
20 -966 20 -816 0 -960 2 -990 15 -27 11 -40 26 -59 68 -13 30 -31 57 -40 61
-9 3 -51 6 -93 6 -100 0 -139 19 -171 81 -17 34 -34 52 -62 64 -21 10 -48 29
-61 42 l-23 25 -2 2226 -2 2227 -26 23 c-19 16 -39 22 -71 22 l-44 0 0 -2480z"/>
<path d="M18670 3391 c-5 -11 -10 -50 -10 -87 0 -72 5 -64 -112 -168 -25 -22
-28 -31 -28 -93 0 -78 -12 -101 -71 -138 -21 -14 -51 -43 -66 -66 -41 -62 -63
-69 -216 -69 -96 0 -138 -4 -152 -14 -25 -18 -14 -41 31 -68 19 -11 46 -38 59
-59 14 -21 36 -46 51 -56 15 -10 41 -31 59 -48 l32 -30 6 -145 c6 -165 -2
-200 -54 -228 -64 -34 -79 -56 -79 -117 0 -77 19 -95 104 -95 69 0 71 1 129
84 9 14 33 33 52 42 19 9 51 38 70 65 20 27 47 54 61 59 14 6 85 10 158 10
122 0 136 2 161 22 l28 22 -5 435 c-4 270 -10 446 -16 463 -6 14 -32 41 -57
58 -56 39 -75 78 -75 158 0 57 -11 82 -37 82 -7 0 -17 -9 -23 -19z"/>
<path d="M19086 2749 l-27 -21 3 -382 c4 -446 2 -436 88 -436 l50 0 0 121 c0
115 -1 123 -25 151 -24 28 -25 36 -25 147 0 110 2 121 25 155 23 34 25 45 25
161 l0 125 -44 0 c-29 0 -52 -7 -70 -21z"/>
<path d="M19082 1687 c-21 -23 -22 -24 -24 -619 -3 -580 -4 -597 -23 -618 -11
-13 -40 -32 -63 -42 -34 -16 -48 -29 -63 -63 -30 -69 -58 -85 -148 -86 -108
-1 -122 -7 -149 -59 -12 -25 -34 -56 -47 -70 l-25 -25 -288 0 c-158 0 -2654 3
-5547 7 -2893 4 -5534 4 -5870 0 l-610 -7 -3 -52 -3 -53 6490 0 6491 0 0 855
0 855 -48 0 c-38 0 -53 -5 -70 -23z"/>
<path d="M5817 713 c-4 -3 -7 -34 -7 -68 0 -65 -11 -85 -46 -85 -25 0 -34 -23
-34 -93 0 -45 -2 -49 -35 -63 -19 -8 -35 -20 -35 -27 0 -7 -6 -22 -14 -33 -12
-16 -30 -20 -112 -24 -59 -3 -99 -9 -101 -16 -2 -6 3 -14 11 -17 8 -3 162 -6
343 -7 512 -2 483 -3 483 19 0 27 -23 32 -106 25 -97 -9 -121 -2 -132 38 -6
25 -15 34 -40 40 -35 9 -40 22 -44 102 -3 46 -5 49 -38 60 l-35 11 -3 73 c-3
68 -4 72 -26 72 -12 0 -26 -3 -29 -7z"/>
<path d="M3780 100 c-632 -5 -666 -6 -693 -24 -15 -10 -35 -32 -43 -47 l-15
-29 1216 0 1215 0 0 33 c0 18 -7 43 -16 55 l-15 22 -492 -2 c-271 -2 -791 -5
-1157 -8z"/>
<path d="M5592 98 c-7 -7 -12 -31 -12 -55 l0 -43 265 0 265 0 0 43 c0 24 -5
48 -12 55 -17 17 -489 17 -506 0z"/>
</g>
</svg>
