<svg version="1.0" xmlns="http://www.w3.org/2000/svg" width="64.000000px" height="64.000000px" viewBox="0 0 64.000000 64.000000" preserveAspectRatio="xMidYMid meet"><g transform="translate(0.000000,64.000000) scale(0.100000,-0.100000)" fill="#000000" stroke="none"><path d="M295 591 c-3 -10 -2 -26 1 -36 6 -15 4 -16 -15 -6 -12 7 -19 16 -16 21 3 5 -13 1 -36 -8 -87 -34 -165 -163 -157 -259 3 -36 5 -38 36 -36 29 1 32 -1 26 -20 -10 -34 -35 -57 -61 -57 -16 0 -23 -6 -23 -20 0 -42 65 -38 105 6 13 14 27 40 31 57 8 39 19 47 64 47 19 0 30 -4 24 -8 -6 -4 -16 -23 -23 -43 -19 -57 -68 -128 -93 -133 -13 -3 -34 -7 -48 -8 -19 -2 -25 -9 -25 -28 0 -21 5 -25 35 -28 101 -10 160 54 185 201 3 20 10 37 15 37 5 0 12 -17 15 -38 25 -146 84 -210 185 -200 30 3 35 7 35 28 0 19 -6 26 -25 28 -14 1 -35 5 -48 8 -25 5 -74 76 -93 133 -7 20 -17 39 -23 43 -6 4 5 8 24 8 45 0 56 -8 64 -47 4 -17 18 -43 31 -57 40 -44 105 -48 105 -6 0 14 -7 20 -23 20 -26 0 -51 23 -61 57 -6 19 -3 21 26 20 31 -2 33 0 36 36 6 65 -22 137 -77 198 -51 57 -92 79 -116 59 -14 -12 -45 -3 -45 12 0 6 6 5 15 -2 10 -9 15 -9 15 -1 0 6 -4 11 -10 11 -5 0 -10 7 -10 15 0 22 -38 19 -45 -4z m105 -35 c0 -3 -4 -8 -10 -11 -5 -3 -10 -1 -10 4 0 6 5 11 10 11 6 0 10 -2 10 -4z m-179 -13 c-11 -5 -11 -7 0 -14 10 -6 7 -9 -10 -9 -20 0 -21 2 -11 15 7 8 18 15 24 14 6 0 5 -3 -3 -6z m32 -8 c-3 -9 -8 -14 -10 -11 -3 3 -2 9 2 15 9 16 15 13 8 -4z m188 -2 c13 -17 13 -17 -6 -3 -11 8 -22 16 -24 17 -2 2 0 3 6 3 6 0 17 -8 24 -17z m-156 -3 c3 -5 1 -10 -4 -10 -6 0 -11 5 -11 10 0 6 2 10 4 10 3 0 8 -4 11 -10z m90 0 c3 -5 1 -10 -4 -10 -6 0 -11 5 -11 10 0 6 2 10 4 10 3 0 8 -4 11 -10z m-191 -32 c-5 -9 -2 -8 9 1 22 17 35 7 16 -12 -17 -17 -49 -18 -49 -2 0 14 10 25 22 25 5 0 6 -6 2 -12z m113 -18 c1 -14 0 -20 -4 -14 -5 6 -21 18 -38 27 l-30 16 34 -2 c28 -2 35 -7 38 -27z m113 5 c0 -11 -3 -15 -8 -9 -4 6 -17 13 -29 16 -17 5 -21 2 -18 -13 3 -12 -1 -16 -11 -12 -15 5 -19 25 -7 37 4 3 22 5 40 4 26 -2 33 -6 33 -23z m63 13 c-2 -5 -3 -13 -3 -19 0 -5 -5 -7 -12 -3 -8 5 -9 2 -4 -11 7 -18 6 -18 -14 0 -28 25 -25 42 8 41 15 -1 26 -4 25 -8z m-312 -45 c13 -16 12 -17 -3 -4 -10 7 -18 15 -18 17 0 8 8 3 21 -13z m106 1 c-3 -3 -12 -4 -19 -1 -8 3 -5 6 6 6 11 1 17 -2 13 -5z"/></g></svg>